<svg version="1.1" id="Layer_1" xmlns="http://www.w3.org/2000/svg" xmlns:xlink="http://www.w3.org/1999/xlink" x="0px" y="0px"
	 width="100%" viewBox="0 0 5178 5444" enable-background="new 0 0 5178 5444" xml:space="preserve">
<path fill="#FFFFFF" opacity="1.000000" stroke="none" 
	d="
M4376.000000,5448.000000 
	C2918.666748,5448.000000 1461.333252,5448.000000 4.000000,5448.000000 
	C4.000000,5191.510254 4.000000,4935.593750 5.417434,4677.581055 
	C8.772875,4678.004395 11.136686,4680.302734 12.578222,4683.080566 
	C20.790806,4698.904785 34.271881,4705.947266 51.495594,4706.773438 
	C57.482380,4707.060547 63.492802,4706.872070 69.492439,4706.872070 
	C359.485596,4706.875000 649.478760,4706.872559 939.471924,4706.889160 
	C946.801514,4706.889648 954.175720,4706.621582 961.451904,4707.303223 
	C979.846191,4709.026367 993.610291,4721.540039 996.924500,4739.857910 
	C998.217529,4747.004883 998.334778,4754.432129 998.344299,4761.732422 
	C998.440613,4835.730957 998.403259,4909.729004 998.405090,4983.727539 
	C998.405212,4989.060547 998.622925,4994.402832 998.394043,4999.725586 
	C996.772461,5037.435547 1036.077637,5056.017090 1063.727539,5036.517090 
	C1068.619629,5033.066406 1073.910645,5030.183594 1078.997192,5027.005859 
	C1266.626343,4909.782227 1454.253296,4792.554688 1641.879639,4675.326660 
	C1736.258301,4616.359375 1830.183594,4556.645996 1925.257080,4498.820312 
	C1958.716431,4478.470215 1959.538696,4437.449707 1924.781006,4419.212402 
	C1905.951904,4409.333008 1888.484619,4396.857910 1870.401611,4385.556641 
	C1604.805054,4219.565918 1339.209961,4053.573486 1073.602051,3887.601318 
	C1067.954224,3884.071777 1062.448364,3880.114746 1056.387695,3877.481445 
	C1026.666992,3864.564941 999.335938,3887.533203 998.828857,3910.781982 
	C998.683594,3917.443604 998.426147,3924.105225 998.423584,3930.766846 
	C998.394104,4007.431641 997.715881,4084.105225 998.698608,4160.757324 
	C999.176514,4198.038574 974.837830,4212.365234 947.102295,4212.161621 
	C816.445740,4211.205078 685.778259,4211.736816 555.114685,4211.727051 
	C550.449280,4211.726562 545.747864,4211.963379 541.124634,4211.490234 
	C520.780518,4209.405273 505.394653,4193.775879 503.807404,4173.518555 
	C503.339874,4167.551758 503.590088,4161.525879 503.590057,4155.526855 
	C503.583252,2956.221924 503.583344,1756.916748 503.585724,557.611755 
	C503.585724,552.278625 503.428864,546.936829 503.671265,541.613953 
	C504.756042,517.795044 520.372009,501.714417 543.933289,500.357971 
	C551.242981,499.937103 558.595764,500.252197 565.928833,500.252167 
	C1356.576782,500.250214 2147.224854,500.324768 2937.872803,500.015167 
	C2974.728516,500.000732 3011.065186,503.442078 3047.238770,509.291901 
	C3117.642578,520.677307 3187.135986,536.278687 3255.727783,555.897400 
	C3440.275635,608.681885 3613.650879,685.884766 3772.829102,793.660828 
	C4027.863525,966.339172 4213.663086,1195.198486 4328.801758,1481.128784 
	C4402.651367,1664.524414 4440.996582,1855.831543 4455.348145,2052.341064 
	C4458.792480,2099.505859 4460.011230,2146.870605 4460.995605,2194.169678 
	C4463.133301,2296.909912 4458.905273,2399.436768 4447.263184,2501.565186 
	C4439.187012,2572.412109 4427.687500,2642.722656 4412.184082,2712.368652 
	C4382.240234,2846.889160 4338.185547,2976.429932 4276.489746,3099.821045 
	C4189.559570,3273.679932 4073.023438,3424.637451 3926.671387,3552.587402 
	C3804.308350,3659.564453 3668.048584,3744.778076 3520.244385,3811.798828 
	C3370.221191,3879.825684 3213.937500,3927.587891 3051.421387,3954.552979 
	C3017.950195,3960.106201 2984.336670,3964.422363 2950.103760,3964.370605 
	C2682.777100,3963.967041 2415.449951,3964.145508 2148.122803,3964.159180 
	C2141.458984,3964.159424 2134.697754,3963.636475 2128.149902,3964.553955 
	C2110.689697,3967.000000 2098.574951,3976.998047 2093.543213,3993.728027 
	C2088.502197,4010.489258 2092.910400,4025.491699 2106.682617,4036.853027 
	C2111.787842,4041.064697 2117.660400,4044.379395 2123.321289,4047.879150 
	C2702.588867,4406.012695 3282.060059,4763.816406 3861.032471,5122.426270 
	C4032.679443,5228.741699 4202.927246,5337.316406 4373.780762,5444.912109 
	C4374.774902,5445.537598 4375.270996,5446.953125 4376.000000,5448.000000 
M3214.954834,3389.001953 
	C3352.591797,3328.199951 3478.271240,3248.882324 3589.140381,3146.774170 
	C3724.403076,3022.199707 3824.542969,2873.989502 3888.319824,2701.344238 
	C3940.357422,2560.476562 3963.168213,2414.363525 3967.068604,2264.834961 
	C3968.200684,2221.451172 3964.614990,2178.288818 3960.909180,2135.113525 
	C3954.056641,2055.279053 3940.515137,1976.621094 3920.141602,1899.152954 
	C3861.423096,1675.884521 3749.840088,1483.645386 3582.066162,1324.563354 
	C3491.511719,1238.700317 3390.127686,1168.005981 3279.580322,1110.340332 
	C3191.896240,1064.600952 3100.708252,1027.692139 3005.166260,1001.744080 
	C2988.957520,997.341919 2972.714111,995.310059 2955.886230,995.344116 
	C2829.900146,995.598999 2703.913574,995.482544 2577.927002,995.482544 
	C2071.314697,995.482544 1564.702271,995.481079 1058.089844,995.498047 
	C1050.094482,995.498352 1042.041992,995.162415 1034.115112,995.962585 
	C1016.048157,997.786438 1001.933838,1011.223022 999.260498,1029.179565 
	C998.188293,1036.381958 998.239258,1043.792358 998.238953,1051.108032 
	C998.198547,1909.682739 998.201111,2768.257324 998.212524,3626.832031 
	C998.212585,3632.162354 998.351318,3637.492676 998.456787,3642.822754 
	C999.036194,3672.100586 1032.245117,3693.162354 1061.428589,3675.868164 
	C1066.584595,3672.812744 1071.566284,3669.460693 1076.603271,3666.207031 
	C1354.791138,3486.515137 1632.975952,3306.818359 1911.164917,3127.128174 
	C1916.202026,3123.875000 1921.095215,3120.333984 1926.378540,3117.537842 
	C1953.956299,3102.941650 1985.260620,3120.326660 1987.679932,3151.544678 
	C1988.090942,3156.847900 1987.839111,3162.205078 1987.839600,3167.537354 
	C1987.847290,3250.195068 1987.843384,3332.853027 1987.853149,3415.510742 
	C1987.853760,3420.842773 1987.586182,3426.206299 1988.054443,3431.501221 
	C1989.877441,3452.105957 2005.030884,3467.059814 2025.839233,3468.639160 
	C2033.133423,3469.192627 2040.494995,3468.923096 2047.825806,3468.923340 
	C2349.793457,3468.934082 2651.761230,3468.870850 2953.728760,3469.079346 
	C2972.574463,3469.092529 2990.751709,3466.785156 3008.943115,3461.964355 
	C3078.631348,3443.497803 3146.200928,3419.123779 3214.954834,3389.001953 
z"/>
<path fill="#36B733" opacity="1.000000" stroke="none" 
	d="
M4377.874512,5448.000000 
	C4375.270996,5446.953125 4374.774902,5445.537598 4373.780762,5444.912109 
	C4202.927246,5337.316406 4032.679443,5228.741699 3861.032471,5122.426270 
	C3282.060059,4763.816406 2702.588867,4406.012695 2123.321289,4047.879150 
	C2117.660400,4044.379395 2111.787842,4041.064697 2106.682617,4036.853027 
	C2092.910400,4025.491699 2088.502197,4010.489258 2093.543213,3993.728027 
	C2098.574951,3976.998047 2110.689697,3967.000000 2128.149902,3964.553955 
	C2134.697754,3963.636475 2141.458984,3964.159424 2148.122803,3964.159180 
	C2415.449951,3964.145508 2682.777100,3963.967041 2950.103760,3964.370605 
	C2984.336670,3964.422363 3017.950195,3960.106201 3051.421387,3954.552979 
	C3213.937500,3927.587891 3370.221191,3879.825684 3520.244385,3811.798828 
	C3668.048584,3744.778076 3804.308350,3659.564453 3926.671387,3552.587402 
	C4073.023438,3424.637451 4189.559570,3273.679932 4276.489746,3099.821045 
	C4338.185547,2976.429932 4382.240234,2846.889160 4412.184082,2712.368652 
	C4427.687500,2642.722656 4439.187012,2572.412109 4447.263184,2501.565186 
	C4458.905273,2399.436768 4463.133301,2296.909912 4460.995605,2194.169678 
	C4460.011230,2146.870605 4458.792480,2099.505859 4455.348145,2052.341064 
	C4440.996582,1855.831543 4402.651367,1664.524414 4328.801758,1481.128784 
	C4213.663086,1195.198486 4027.863525,966.339172 3772.829102,793.660828 
	C3613.650879,685.884766 3440.275635,608.681885 3255.727783,555.897400 
	C3187.135986,536.278687 3117.642578,520.677307 3047.238770,509.291901 
	C3011.065186,503.442078 2974.728516,500.000732 2937.872803,500.015167 
	C2147.224854,500.324768 1356.576782,500.250214 565.928833,500.252167 
	C558.595764,500.252197 551.242981,499.937103 543.933289,500.357971 
	C520.372009,501.714417 504.756042,517.795044 503.671265,541.613953 
	C503.428864,546.936829 503.585724,552.278625 503.585724,557.611755 
	C503.583344,1756.916748 503.583252,2956.221924 503.590057,4155.526855 
	C503.590088,4161.525879 503.339874,4167.551758 503.807404,4173.518555 
	C505.394653,4193.775879 520.780518,4209.405273 541.124634,4211.490234 
	C545.747864,4211.963379 550.449280,4211.726562 555.114685,4211.727051 
	C685.778259,4211.736816 816.445740,4211.205078 947.102295,4212.161621 
	C974.837830,4212.365234 999.176514,4198.038574 998.698608,4160.757324 
	C997.715881,4084.105225 998.394104,4007.431641 998.423584,3930.766846 
	C998.426147,3924.105225 998.683594,3917.443604 998.828857,3910.781982 
	C999.335938,3887.533203 1026.666992,3864.564941 1056.387695,3877.481445 
	C1062.448364,3880.114746 1067.954224,3884.071777 1073.602051,3887.601318 
	C1339.209961,4053.573486 1604.805054,4219.565918 1870.401611,4385.556641 
	C1888.484619,4396.857910 1905.951904,4409.333008 1924.781006,4419.212402 
	C1959.538696,4437.449707 1958.716431,4478.470215 1925.257080,4498.820312 
	C1830.183594,4556.645996 1736.258301,4616.359375 1641.879639,4675.326660 
	C1454.253296,4792.554688 1266.626343,4909.782227 1078.997192,5027.005859 
	C1073.910645,5030.183594 1068.619629,5033.066406 1063.727539,5036.517090 
	C1036.077637,5056.017090 996.772461,5037.435547 998.394043,4999.725586 
	C998.622925,4994.402832 998.405212,4989.060547 998.405090,4983.727539 
	C998.403259,4909.729004 998.440613,4835.730957 998.344299,4761.732422 
	C998.334778,4754.432129 998.217529,4747.004883 996.924500,4739.857910 
	C993.610291,4721.540039 979.846191,4709.026367 961.451904,4707.303223 
	C954.175720,4706.621582 946.801514,4706.889648 939.471924,4706.889160 
	C649.478760,4706.872559 359.485596,4706.875000 69.492439,4706.872070 
	C63.492802,4706.872070 57.482380,4707.060547 51.495594,4706.773438 
	C34.271881,4705.947266 20.790806,4698.904785 12.578222,4683.080566 
	C11.136686,4680.302734 8.772875,4678.004395 5.417434,4675.742188 
	C4.000000,3131.916504 4.000000,1587.832886 5.139925,41.187737 
	C8.203050,36.108410 10.678252,33.840515 11.951389,31.028404 
	C16.787844,20.345631 24.647713,12.975883 35.242973,8.270818 
	C38.209221,6.953589 41.083523,5.429304 44.000000,4.000000 
	C1026.750244,4.000000 2009.500488,4.000000 2995.504395,4.837447 
	C3013.848145,6.437829 3028.938232,7.200763 3045.765625,8.087504 
	C3099.148926,13.798686 3150.978027,18.077930 3202.400635,25.262770 
	C3292.159912,37.803986 3380.761230,56.520699 3468.319824,80.024597 
	C3665.684082,133.004440 3853.014648,209.809616 4027.802490,316.214264 
	C4254.319824,454.110016 4443.013672,631.851624 4591.103516,852.186157 
	C4693.992188,1005.269043 4771.444336,1170.583740 4828.546875,1345.746338 
	C4874.919922,1487.998291 4906.738281,1633.537842 4927.051758,1781.597900 
	C4934.562500,1836.343018 4939.529297,1891.457031 4944.799316,1946.484863 
	C4951.599121,2017.492188 4954.916992,2088.724365 4955.943359,2160.044189 
	C4958.072266,2308.075195 4954.716797,2455.939453 4940.531250,2603.392090 
	C4935.365234,2657.091309 4929.977051,2710.809814 4922.804199,2764.266602 
	C4911.198242,2850.752441 4895.674805,2936.593262 4875.949219,3021.641113 
	C4847.004395,3146.439209 4809.349609,3268.457031 4759.131836,3386.419189 
	C4697.430176,3531.357666 4618.951172,3666.193848 4516.977051,3786.809326 
	C4393.249512,3933.155518 4244.739746,4046.841553 4069.878906,4125.635254 
	C3923.235840,4191.713379 3769.392334,4229.306152 3609.061523,4240.632324 
	C3585.807617,4242.275391 3562.478027,4242.820801 3539.209229,4244.281738 
	C3520.344727,4245.465820 3505.609619,4257.342285 3500.959961,4274.296875 
	C3496.431641,4290.808594 3502.289551,4307.442871 3516.908936,4318.439453 
	C3522.219727,4322.434570 3528.027588,4325.772461 3533.642822,4329.357910 
	C4073.892334,4674.297852 4614.145996,5019.232910 5154.396973,5364.170410 
	C5173.975098,5376.670410 5173.970703,5376.676758 5184.000000,5392.000000 
	C5184.000000,5400.166504 5184.000000,5408.333496 5182.908203,5419.083984 
	C5179.717773,5431.867676 5173.295898,5438.633789 5164.467285,5443.473145 
	C5161.661133,5445.011719 5158.823730,5446.493164 5156.000000,5448.000000 
	C4897.249512,5448.000000 4638.499512,5448.000000 4377.874512,5448.000000 
z"/>
<path fill="#FFFFFF" opacity="1.000000" stroke="none" 
	d="
M5184.000000,5390.125488 
	C5173.970703,5376.676758 5173.975098,5376.670410 5154.396973,5364.170410 
	C4614.145996,5019.232910 4073.892334,4674.297852 3533.642822,4329.357910 
	C3528.027588,4325.772461 3522.219727,4322.434570 3516.908936,4318.439453 
	C3502.289551,4307.442871 3496.431641,4290.808594 3500.959961,4274.296875 
	C3505.609619,4257.342285 3520.344727,4245.465820 3539.209229,4244.281738 
	C3562.478027,4242.820801 3585.807617,4242.275391 3609.061523,4240.632324 
	C3769.392334,4229.306152 3923.235840,4191.713379 4069.878906,4125.635254 
	C4244.739746,4046.841553 4393.249512,3933.155518 4516.977051,3786.809326 
	C4618.951172,3666.193848 4697.430176,3531.357666 4759.131836,3386.419189 
	C4809.349609,3268.457031 4847.004395,3146.439209 4875.949219,3021.641113 
	C4895.674805,2936.593262 4911.198242,2850.752441 4922.804199,2764.266602 
	C4929.977051,2710.809814 4935.365234,2657.091309 4940.531250,2603.392090 
	C4954.716797,2455.939453 4958.072266,2308.075195 4955.943359,2160.044189 
	C4954.916992,2088.724365 4951.599121,2017.492188 4944.799316,1946.484863 
	C4939.529297,1891.457031 4934.562500,1836.343018 4927.051758,1781.597900 
	C4906.738281,1633.537842 4874.919922,1487.998291 4828.546875,1345.746338 
	C4771.444336,1170.583740 4693.992188,1005.269043 4591.103516,852.186157 
	C4443.013672,631.851624 4254.319824,454.110016 4027.802490,316.214264 
	C3853.014648,209.809616 3665.684082,133.004440 3468.319824,80.024597 
	C3380.761230,56.520699 3292.159912,37.803986 3202.400635,25.262770 
	C3150.978027,18.077930 3099.148926,13.798686 3045.563965,7.097987 
	C3043.749756,5.323109 3043.874756,4.661554 3044.000000,4.000000 
	C3757.167480,4.000000 4470.334961,4.000000 5184.000000,4.000000 
	C5184.000000,1798.750244 5184.000000,3593.500732 5184.000000,5390.125488 
z"/>
<path fill="#EFF9EE" opacity="1.000000" stroke="none" 
	d="
M42.053741,4.000000 
	C41.083523,5.429304 38.209221,6.953589 35.242973,8.270818 
	C24.647713,12.975883 16.787844,20.345631 11.951389,31.028404 
	C10.678252,33.840515 8.203050,36.108410 5.139925,39.313107 
	C4.000000,28.306894 4.000000,16.613789 4.000000,4.000000 
	C16.020178,4.000000 28.063829,4.000000 42.053741,4.000000 
z"/>
<path fill="#E9F7E9" opacity="1.000000" stroke="none" 
	d="
M5157.991699,5448.000000 
	C5158.823730,5446.493164 5161.661133,5445.011719 5164.467285,5443.473145 
	C5173.295898,5438.633789 5179.717773,5431.867676 5182.908203,5420.833984 
	C5184.000000,5428.990723 5184.000000,5437.980957 5184.000000,5448.000000 
	C5176.023926,5448.000000 5168.003418,5448.000000 5157.991699,5448.000000 
z"/>
<path fill="#A2DDA0" opacity="1.000000" stroke="none" 
	d="
M3042.157471,4.000000 
	C3043.874756,4.661554 3043.749756,5.323109 3043.826660,6.974180 
	C3028.938232,7.200763 3013.848145,6.437829 2997.378906,4.837447 
	C3010.771729,4.000000 3025.543213,4.000000 3042.157471,4.000000 
z"/>
<path fill="#36B733" opacity="1.000000" stroke="none" 
	d="
M3213.603027,3389.691406 
	C3146.200928,3419.123779 3078.631348,3443.497803 3008.943115,3461.964355 
	C2990.751709,3466.785156 2972.574463,3469.092529 2953.728760,3469.079346 
	C2651.761230,3468.870850 2349.793457,3468.934082 2047.825806,3468.923340 
	C2040.494995,3468.923096 2033.133423,3469.192627 2025.839233,3468.639160 
	C2005.030884,3467.059814 1989.877441,3452.105957 1988.054443,3431.501221 
	C1987.586182,3426.206299 1987.853760,3420.842773 1987.853149,3415.510742 
	C1987.843384,3332.853027 1987.847290,3250.195068 1987.839600,3167.537354 
	C1987.839111,3162.205078 1988.090942,3156.847900 1987.679932,3151.544678 
	C1985.260620,3120.326660 1953.956299,3102.941650 1926.378540,3117.537842 
	C1921.095215,3120.333984 1916.202026,3123.875000 1911.164917,3127.128174 
	C1632.975952,3306.818359 1354.791138,3486.515137 1076.603271,3666.207031 
	C1071.566284,3669.460693 1066.584595,3672.812744 1061.428589,3675.868164 
	C1032.245117,3693.162354 999.036194,3672.100586 998.456787,3642.822754 
	C998.351318,3637.492676 998.212585,3632.162354 998.212524,3626.832031 
	C998.201111,2768.257324 998.198547,1909.682739 998.238953,1051.108032 
	C998.239258,1043.792358 998.188293,1036.381958 999.260498,1029.179565 
	C1001.933838,1011.223022 1016.048157,997.786438 1034.115112,995.962585 
	C1042.041992,995.162415 1050.094482,995.498352 1058.089844,995.498047 
	C1564.702271,995.481079 2071.314697,995.482544 2577.927002,995.482544 
	C2703.913574,995.482544 2829.900146,995.598999 2955.886230,995.344116 
	C2972.714111,995.310059 2988.957520,997.341919 3005.166260,1001.744080 
	C3100.708252,1027.692139 3191.896240,1064.600952 3279.580322,1110.340332 
	C3390.127686,1168.005981 3491.511719,1238.700317 3582.066162,1324.563354 
	C3749.840088,1483.645386 3861.423096,1675.884521 3920.141602,1899.152954 
	C3940.515137,1976.621094 3954.056641,2055.279053 3960.909180,2135.113525 
	C3964.614990,2178.288818 3968.200684,2221.451172 3967.068604,2264.834961 
	C3963.168213,2414.363525 3940.357422,2560.476562 3888.319824,2701.344238 
	C3824.542969,2873.989502 3724.403076,3022.199707 3589.140381,3146.774170 
	C3478.271240,3248.882324 3352.591797,3328.199951 3213.603027,3389.691406 
z"/>
</svg>